<mxfile host="app.diagrams.net" modified="2020-03-17T06:07:47.295Z" agent="Mozilla/5.0 (Windows NT 10.0; Win64; x64) AppleWebKit/537.36 (KHTML, like Gecko) Chrome/80.0.3987.132 Safari/537.36" etag="QqKQEsSVXBaCJEmtt0DX" version="12.8.5" type="github">
  <diagram id="pbymaa8K16CYE7F3EQun" name="Page-1">
    <mxGraphModel dx="1865" dy="1749" grid="1" gridSize="10" guides="1" tooltips="1" connect="1" arrows="1" fold="1" page="1" pageScale="1" pageWidth="827" pageHeight="1169" math="0" shadow="0">
      <root>
        <mxCell id="0" />
        <mxCell id="1" parent="0" />
        <mxCell id="0KbJ406O0pL8vo5ZdRxn-11" value="" style="edgeStyle=orthogonalEdgeStyle;rounded=0;orthogonalLoop=1;jettySize=auto;html=1;" edge="1" parent="1" source="0KbJ406O0pL8vo5ZdRxn-6" target="0KbJ406O0pL8vo5ZdRxn-8">
          <mxGeometry relative="1" as="geometry" />
        </mxCell>
        <mxCell id="0KbJ406O0pL8vo5ZdRxn-17" value="" style="edgeStyle=orthogonalEdgeStyle;rounded=0;orthogonalLoop=1;jettySize=auto;html=1;" edge="1" parent="1" source="0KbJ406O0pL8vo5ZdRxn-6" target="0KbJ406O0pL8vo5ZdRxn-12">
          <mxGeometry relative="1" as="geometry" />
        </mxCell>
        <mxCell id="0KbJ406O0pL8vo5ZdRxn-6" value="Main" style="rounded=1;whiteSpace=wrap;html=1;fillColor=#ffe6cc;strokeColor=#d79b00;" vertex="1" parent="1">
          <mxGeometry x="330" y="100" width="120" height="60" as="geometry" />
        </mxCell>
        <mxCell id="0KbJ406O0pL8vo5ZdRxn-10" value="" style="edgeStyle=orthogonalEdgeStyle;rounded=0;orthogonalLoop=1;jettySize=auto;html=1;" edge="1" parent="1" source="0KbJ406O0pL8vo5ZdRxn-8" target="0KbJ406O0pL8vo5ZdRxn-9">
          <mxGeometry relative="1" as="geometry" />
        </mxCell>
        <mxCell id="0KbJ406O0pL8vo5ZdRxn-8" value="&lt;span style=&quot;white-space: normal&quot;&gt;SpringApplication.Run&lt;/span&gt;" style="rounded=1;whiteSpace=wrap;html=1;" vertex="1" parent="1">
          <mxGeometry x="330" y="210" width="120" height="60" as="geometry" />
        </mxCell>
        <mxCell id="0KbJ406O0pL8vo5ZdRxn-23" value="" style="edgeStyle=orthogonalEdgeStyle;rounded=0;orthogonalLoop=1;jettySize=auto;html=1;" edge="1" parent="1" source="0KbJ406O0pL8vo5ZdRxn-9" target="0KbJ406O0pL8vo5ZdRxn-22">
          <mxGeometry relative="1" as="geometry" />
        </mxCell>
        <mxCell id="0KbJ406O0pL8vo5ZdRxn-9" value="加载监听器" style="rounded=1;whiteSpace=wrap;html=1;" vertex="1" parent="1">
          <mxGeometry x="330" y="350" width="120" height="60" as="geometry" />
        </mxCell>
        <mxCell id="0KbJ406O0pL8vo5ZdRxn-15" value="" style="edgeStyle=orthogonalEdgeStyle;rounded=0;orthogonalLoop=1;jettySize=auto;html=1;" edge="1" parent="1" source="0KbJ406O0pL8vo5ZdRxn-12" target="0KbJ406O0pL8vo5ZdRxn-14">
          <mxGeometry relative="1" as="geometry" />
        </mxCell>
        <mxCell id="0KbJ406O0pL8vo5ZdRxn-12" value="初始化一个SpringApplication实例" style="rounded=1;whiteSpace=wrap;html=1;" vertex="1" parent="1">
          <mxGeometry x="180" y="100" width="120" height="60" as="geometry" />
        </mxCell>
        <mxCell id="0KbJ406O0pL8vo5ZdRxn-38" style="edgeStyle=orthogonalEdgeStyle;rounded=0;orthogonalLoop=1;jettySize=auto;html=1;entryX=0.5;entryY=0;entryDx=0;entryDy=0;" edge="1" parent="1" source="0KbJ406O0pL8vo5ZdRxn-14" target="0KbJ406O0pL8vo5ZdRxn-37">
          <mxGeometry relative="1" as="geometry">
            <Array as="points">
              <mxPoint x="20" y="200" />
              <mxPoint x="-245" y="200" />
            </Array>
          </mxGeometry>
        </mxCell>
        <mxCell id="0KbJ406O0pL8vo5ZdRxn-41" style="edgeStyle=orthogonalEdgeStyle;rounded=0;orthogonalLoop=1;jettySize=auto;html=1;entryX=0.75;entryY=0;entryDx=0;entryDy=0;" edge="1" parent="1" source="0KbJ406O0pL8vo5ZdRxn-14" target="0KbJ406O0pL8vo5ZdRxn-39">
          <mxGeometry relative="1" as="geometry" />
        </mxCell>
        <mxCell id="0KbJ406O0pL8vo5ZdRxn-46" style="rounded=0;orthogonalLoop=1;jettySize=auto;html=1;entryX=0.5;entryY=0;entryDx=0;entryDy=0;" edge="1" parent="1" source="0KbJ406O0pL8vo5ZdRxn-14" target="0KbJ406O0pL8vo5ZdRxn-40">
          <mxGeometry relative="1" as="geometry" />
        </mxCell>
        <mxCell id="0KbJ406O0pL8vo5ZdRxn-14" value="initialize&lt;br&gt;初始化模块" style="rounded=1;whiteSpace=wrap;html=1;" vertex="1" parent="1">
          <mxGeometry x="-40" y="100" width="120" height="60" as="geometry" />
        </mxCell>
        <mxCell id="0KbJ406O0pL8vo5ZdRxn-16" value="&lt;div&gt;javax.servlet.Servlet&quot;,&lt;/div&gt;&lt;div&gt;&amp;nbsp;org.springframework.web.context.ConfigurableWebApplicationContext&lt;/div&gt;" style="text;html=1;strokeColor=none;fillColor=none;align=left;verticalAlign=middle;whiteSpace=wrap;rounded=0;fontStyle=1" vertex="1" parent="1">
          <mxGeometry x="-290" y="150" width="210" height="20" as="geometry" />
        </mxCell>
        <mxCell id="0KbJ406O0pL8vo5ZdRxn-25" value="" style="edgeStyle=orthogonalEdgeStyle;rounded=0;orthogonalLoop=1;jettySize=auto;html=1;" edge="1" parent="1" source="0KbJ406O0pL8vo5ZdRxn-22" target="0KbJ406O0pL8vo5ZdRxn-24">
          <mxGeometry relative="1" as="geometry" />
        </mxCell>
        <mxCell id="0KbJ406O0pL8vo5ZdRxn-22" value="初始化容器里的Bean" style="rounded=1;whiteSpace=wrap;html=1;" vertex="1" parent="1">
          <mxGeometry x="330" y="460" width="120" height="60" as="geometry" />
        </mxCell>
        <mxCell id="0KbJ406O0pL8vo5ZdRxn-29" value="" style="edgeStyle=orthogonalEdgeStyle;rounded=0;orthogonalLoop=1;jettySize=auto;html=1;" edge="1" parent="1" source="0KbJ406O0pL8vo5ZdRxn-24" target="0KbJ406O0pL8vo5ZdRxn-28">
          <mxGeometry relative="1" as="geometry" />
        </mxCell>
        <mxCell id="0KbJ406O0pL8vo5ZdRxn-24" value="refresh" style="rounded=1;whiteSpace=wrap;html=1;" vertex="1" parent="1">
          <mxGeometry x="330" y="600" width="120" height="60" as="geometry" />
        </mxCell>
        <mxCell id="0KbJ406O0pL8vo5ZdRxn-27" value="" style="edgeStyle=orthogonalEdgeStyle;rounded=0;orthogonalLoop=1;jettySize=auto;html=1;" edge="1" parent="1" source="0KbJ406O0pL8vo5ZdRxn-26" target="0KbJ406O0pL8vo5ZdRxn-6">
          <mxGeometry relative="1" as="geometry" />
        </mxCell>
        <mxCell id="0KbJ406O0pL8vo5ZdRxn-26" value="&lt;span style=&quot;white-space: normal&quot;&gt;@SpringBootApplication注解类&lt;/span&gt;" style="rounded=1;whiteSpace=wrap;html=1;" vertex="1" parent="1">
          <mxGeometry x="330" y="-10" width="120" height="60" as="geometry" />
        </mxCell>
        <mxCell id="0KbJ406O0pL8vo5ZdRxn-31" value="" style="edgeStyle=orthogonalEdgeStyle;rounded=0;orthogonalLoop=1;jettySize=auto;html=1;" edge="1" parent="1" source="0KbJ406O0pL8vo5ZdRxn-28" target="0KbJ406O0pL8vo5ZdRxn-30">
          <mxGeometry relative="1" as="geometry" />
        </mxCell>
        <mxCell id="0KbJ406O0pL8vo5ZdRxn-28" value="refresh后回调ApplicationRunnere接口CommanLineRunner方法" style="rounded=1;whiteSpace=wrap;html=1;" vertex="1" parent="1">
          <mxGeometry x="330" y="710" width="120" height="70" as="geometry" />
        </mxCell>
        <mxCell id="0KbJ406O0pL8vo5ZdRxn-30" value="finish监听广播事件" style="rounded=1;whiteSpace=wrap;html=1;" vertex="1" parent="1">
          <mxGeometry x="330" y="850" width="120" height="60" as="geometry" />
        </mxCell>
        <mxCell id="0KbJ406O0pL8vo5ZdRxn-37" value="配置Source" style="rounded=1;whiteSpace=wrap;html=1;" vertex="1" parent="1">
          <mxGeometry x="-290" y="240" width="90" height="60" as="geometry" />
        </mxCell>
        <mxCell id="0KbJ406O0pL8vo5ZdRxn-43" style="shape=link;rounded=0;orthogonalLoop=1;jettySize=auto;html=1;elbow=vertical;" edge="1" parent="1">
          <mxGeometry relative="1" as="geometry">
            <mxPoint x="-110" y="180" as="targetPoint" />
            <mxPoint x="-110" y="230" as="sourcePoint" />
          </mxGeometry>
        </mxCell>
        <mxCell id="0KbJ406O0pL8vo5ZdRxn-44" value="如果有这两个类，&lt;br&gt;则为Web容器" style="text;html=1;align=center;verticalAlign=middle;resizable=0;points=[];labelBackgroundColor=#ffffff;" vertex="1" connectable="0" parent="0KbJ406O0pL8vo5ZdRxn-43">
          <mxGeometry x="-0.0747" y="2" relative="1" as="geometry">
            <mxPoint x="-27.999999999999996" y="13" as="offset" />
          </mxGeometry>
        </mxCell>
        <mxCell id="0KbJ406O0pL8vo5ZdRxn-39" value="初始化Web容器" style="rounded=1;whiteSpace=wrap;html=1;" vertex="1" parent="1">
          <mxGeometry x="-150" y="240" width="100" height="60" as="geometry" />
        </mxCell>
        <mxCell id="0KbJ406O0pL8vo5ZdRxn-40" value="初始化构造器" style="rounded=1;whiteSpace=wrap;html=1;" vertex="1" parent="1">
          <mxGeometry x="-25" y="240" width="90" height="60" as="geometry" />
        </mxCell>
        <mxCell id="0KbJ406O0pL8vo5ZdRxn-45" value="创建监听器" style="rounded=1;whiteSpace=wrap;html=1;" vertex="1" parent="1">
          <mxGeometry x="90" y="240" width="90" height="60" as="geometry" />
        </mxCell>
        <mxCell id="0KbJ406O0pL8vo5ZdRxn-47" value="初始化应用Main方法所在的类" style="rounded=1;whiteSpace=wrap;html=1;" vertex="1" parent="1">
          <mxGeometry x="190" y="240" width="90" height="60" as="geometry" />
        </mxCell>
      </root>
    </mxGraphModel>
  </diagram>
</mxfile>
